<svg width="199" height="40" viewBox="0 0 199 40" fill="none" xmlns="http://www.w3.org/2000/svg">
<path d="M31.464 9.216H39.848C43.5813 9.216 46.472 10.208 48.52 12.192C50.5893 14.176 51.624 16.9707 51.624 20.576C51.624 24.2027 50.5893 27.0187 48.52 29.024C46.472 31.008 43.5813 32 39.848 32H31.464V9.216ZM39.592 28.64C44.84 28.64 47.464 25.952 47.464 20.576C47.464 15.2427 44.84 12.576 39.592 12.576H35.592V28.64H39.592ZM62.879 32.256C61.2363 32.256 59.7857 31.9147 58.527 31.232C57.2897 30.5493 56.3297 29.5787 55.647 28.32C54.9857 27.04 54.655 25.5467 54.655 23.84C54.655 22.1333 54.9857 20.6507 55.647 19.392C56.3297 18.112 57.2897 17.1307 58.527 16.448C59.7857 15.7653 61.2363 15.424 62.879 15.424C64.5003 15.424 65.9297 15.7653 67.167 16.448C68.4043 17.1307 69.3537 18.112 70.015 19.392C70.6977 20.6507 71.039 22.1333 71.039 23.84C71.039 25.5467 70.6977 27.04 70.015 28.32C69.3537 29.5787 68.4043 30.5493 67.167 31.232C65.9297 31.9147 64.5003 32.256 62.879 32.256ZM62.847 29.12C64.2123 29.12 65.247 28.6827 65.951 27.808C66.6763 26.912 67.039 25.5893 67.039 23.84C67.039 22.112 66.6763 20.8 65.951 19.904C65.2257 18.9867 64.2017 18.528 62.879 18.528C61.535 18.528 60.5003 18.9867 59.775 19.904C59.0497 20.8 58.687 22.112 58.687 23.84C58.687 25.5893 59.039 26.912 59.743 27.808C60.4683 28.6827 61.503 29.12 62.847 29.12ZM81.8165 32.256C80.1312 32.256 78.6698 31.9147 77.4325 31.232C76.1952 30.5493 75.2458 29.5893 74.5845 28.352C73.9232 27.0933 73.5925 25.6213 73.5925 23.936C73.5925 22.2507 73.9338 20.768 74.6165 19.488C75.3205 18.208 76.3018 17.216 77.5605 16.512C78.8405 15.7867 80.3125 15.424 81.9765 15.424C83.1285 15.424 84.2378 15.6053 85.3045 15.968C86.3925 16.3307 87.2565 16.832 87.8965 17.472L86.7765 20.288C86.0938 19.7333 85.3685 19.3173 84.6005 19.04C83.8325 18.7413 83.0752 18.592 82.3285 18.592C80.8778 18.592 79.7472 19.0507 78.9365 19.968C78.1258 20.864 77.7205 22.1653 77.7205 23.872C77.7205 25.5787 78.1152 26.88 78.9045 27.776C79.7152 28.672 80.8565 29.12 82.3285 29.12C83.0752 29.12 83.8325 28.9707 84.6005 28.672C85.3685 28.3733 86.0938 27.9467 86.7765 27.392L87.8965 30.208C87.2138 30.848 86.3285 31.3493 85.2405 31.712C84.1525 32.0747 83.0112 32.256 81.8165 32.256ZM95.764 18.848V26.08C95.764 27.9787 96.6493 28.928 98.42 28.928C98.9107 28.928 99.444 28.8427 100.02 28.672V31.84C99.316 32.096 98.4627 32.224 97.46 32.224C95.6253 32.224 94.2173 31.712 93.236 30.688C92.2547 29.664 91.764 28.192 91.764 26.272V18.848H88.66V15.84H91.764V11.904L95.764 10.56V15.84H100.052V18.848H95.764ZM110.129 32.256C108.486 32.256 107.036 31.9147 105.777 31.232C104.54 30.5493 103.58 29.5787 102.897 28.32C102.236 27.04 101.905 25.5467 101.905 23.84C101.905 22.1333 102.236 20.6507 102.897 19.392C103.58 18.112 104.54 17.1307 105.777 16.448C107.036 15.7653 108.486 15.424 110.129 15.424C111.75 15.424 113.18 15.7653 114.417 16.448C115.654 17.1307 116.604 18.112 117.265 19.392C117.948 20.6507 118.289 22.1333 118.289 23.84C118.289 25.5467 117.948 27.04 117.265 28.32C116.604 29.5787 115.654 30.5493 114.417 31.232C113.18 31.9147 111.75 32.256 110.129 32.256ZM110.097 29.12C111.462 29.12 112.497 28.6827 113.201 27.808C113.926 26.912 114.289 25.5893 114.289 23.84C114.289 22.112 113.926 20.8 113.201 19.904C112.476 18.9867 111.452 18.528 110.129 18.528C108.785 18.528 107.75 18.9867 107.025 19.904C106.3 20.8 105.937 22.112 105.937 23.84C105.937 25.5893 106.289 26.912 106.993 27.808C107.718 28.6827 108.753 29.12 110.097 29.12ZM130.443 15.456C131.061 15.456 131.595 15.5413 132.043 15.712L132.011 19.36C131.328 19.0827 130.624 18.944 129.899 18.944C128.533 18.944 127.488 19.3387 126.763 20.128C126.059 20.9173 125.707 21.9627 125.707 23.264V32H121.739V20.416C121.739 18.7093 121.653 17.184 121.483 15.84H125.227L125.547 18.688C125.952 17.6427 126.592 16.8427 127.467 16.288C128.341 15.7333 129.333 15.456 130.443 15.456ZM134.27 15.84H138.238V32H134.27V15.84ZM138.462 8.512V12.448H134.014V8.512H138.462ZM151.862 15.424C155.723 15.424 157.654 17.6427 157.654 22.08V32H153.654V22.272C153.654 20.992 153.408 20.064 152.918 19.488C152.427 18.8907 151.67 18.592 150.646 18.592C149.43 18.592 148.448 18.9867 147.702 19.776C146.955 20.544 146.582 21.568 146.582 22.848V32H142.614V20.416C142.614 18.7093 142.528 17.184 142.358 15.84H146.102L146.39 18.496C146.944 17.5147 147.691 16.7573 148.63 16.224C149.59 15.6907 150.667 15.424 151.862 15.424ZM171.143 15.424C175.004 15.424 176.935 17.6427 176.935 22.08V32H172.935V22.272C172.935 20.992 172.689 20.064 172.199 19.488C171.708 18.8907 170.951 18.592 169.927 18.592C168.711 18.592 167.729 18.9867 166.983 19.776C166.236 20.544 165.863 21.568 165.863 22.848V32H161.895V20.416C161.895 18.7093 161.809 17.184 161.639 15.84H165.383L165.671 18.496C166.225 17.5147 166.972 16.7573 167.911 16.224C168.871 15.6907 169.948 15.424 171.143 15.424ZM196.632 15.84V32H192.696V29.408C192.205 30.304 191.501 31.008 190.584 31.52C189.667 32.0107 188.621 32.256 187.448 32.256C186.04 32.256 184.792 31.9147 183.704 31.232C182.616 30.5493 181.773 29.5787 181.176 28.32C180.579 27.0613 180.28 25.6 180.28 23.936C180.28 22.272 180.579 20.8 181.176 19.52C181.795 18.2187 182.648 17.216 183.736 16.512C184.824 15.7867 186.061 15.424 187.448 15.424C188.621 15.424 189.667 15.68 190.584 16.192C191.501 16.6827 192.205 17.376 192.696 18.272V15.84H196.632ZM188.536 29.12C189.859 29.12 190.883 28.6613 191.608 27.744C192.333 26.8267 192.696 25.536 192.696 23.872C192.696 22.1653 192.333 20.8533 191.608 19.936C190.883 19.0187 189.848 18.56 188.504 18.56C187.181 18.56 186.147 19.04 185.4 20C184.675 20.9387 184.312 22.2507 184.312 23.936C184.312 25.6 184.675 26.88 185.4 27.776C186.147 28.672 187.192 29.12 188.536 29.12Z" fill="#424242"/>
<path d="M27.7793 20.6617C27.1905 20.6617 26.6897 21.0441 26.5111 21.5735H24.9512C25.2956 20.5121 25.4706 19.429 25.4706 18.3456C25.4706 14.8466 22.6239 12 19.1249 12C17.3904 12 15.7523 12.7011 14.5587 13.939C13.3652 12.701 11.7271 12 9.99256 12C6.49356 12 3.64692 14.8466 3.64692 18.3456C3.64692 18.9832 3.70743 19.626 3.82692 20.2559C3.87082 20.4873 4.09386 20.6395 4.32544 20.5955C4.5569 20.5516 4.70892 20.3284 4.66507 20.097C4.55559 19.5193 4.50003 18.93 4.50003 18.3456C4.50003 15.3171 6.96399 12.8531 9.99262 12.8531C11.6371 12.8531 13.1815 13.5812 14.2299 14.8507C14.3109 14.9488 14.4315 15.0057 14.5587 15.0057C14.686 15.0057 14.8066 14.9488 14.8876 14.8507C15.936 13.5812 17.4804 12.8531 19.1249 12.8531C22.1535 12.8531 24.6174 15.317 24.6174 18.3456C24.6174 19.4287 24.4265 20.5131 24.0505 21.5735H20.1019L19.0633 18.6654C19.0001 18.4884 18.8296 18.3735 18.6407 18.3829C18.4529 18.3921 18.2934 18.5231 18.2478 18.7055L16.838 24.3444L14.9724 16.8819C14.9257 16.6952 14.7598 16.5629 14.5673 16.5589C14.3749 16.554 14.2037 16.6804 14.1494 16.865L12.2364 23.3694L10.8566 19.5749C10.7961 19.4087 10.6394 19.297 10.4625 19.2942C10.2882 19.2907 10.1255 19.398 10.0597 19.5622L9.25519 21.5735H2.60648C2.42796 21.0441 1.92711 20.6617 1.33827 20.6617C0.60038 20.6617 0 21.2621 0 22C0 22.738 0.60038 23.3383 1.33827 23.3383C1.92711 23.3383 2.42791 22.9559 2.60648 22.4265H4.48161C5.76824 25.5202 8.33178 27.9182 10.2844 29.4004C12.4498 31.0439 14.2993 31.9227 14.3769 31.9593C14.4921 32.0136 14.6254 32.0136 14.7406 31.9593C14.8029 31.9299 16.2879 31.225 18.1554 29.8981C21.2875 27.6726 22.9664 25.4847 23.8232 24.0413C23.9435 23.8387 23.8768 23.5771 23.6742 23.4569C23.4716 23.3366 23.2099 23.4034 23.0897 23.6059C20.5442 27.8939 15.5703 30.5825 14.5587 31.0974C13.4574 30.5372 7.67163 27.4063 5.41189 22.4266H9.54391C9.71828 22.4266 9.87513 22.3204 9.9399 22.1585L10.4368 20.9165L11.8785 24.8811C11.9415 25.0542 12.1079 25.1673 12.2927 25.1616C12.4769 25.1558 12.6366 25.0325 12.6886 24.8556L14.5253 18.6105L16.4244 26.2064C16.4718 26.3963 16.6424 26.5295 16.8382 26.5295C17.0339 26.5295 17.2045 26.3963 17.2519 26.2064L18.7338 20.279L19.3997 22.1435C19.4603 22.3133 19.6212 22.4266 19.8014 22.4266H26.5111C26.6896 22.9559 27.1905 23.3383 27.7793 23.3383C28.5172 23.3383 29.1176 22.738 29.1176 22C29.1176 21.2621 28.5172 20.6617 27.7793 20.6617ZM1.33827 22.4852C1.0707 22.4852 0.853054 22.2675 0.853054 22C0.853054 21.7325 1.07075 21.5148 1.33827 21.5148C1.60579 21.5148 1.82349 21.7325 1.82349 22C1.82349 22.2675 1.60585 22.4852 1.33827 22.4852ZM27.7793 22.4852C27.5117 22.4852 27.2941 22.2675 27.2941 22C27.2941 21.7325 27.5118 21.5148 27.7793 21.5148C28.0468 21.5148 28.2645 21.7324 28.2645 22C28.2645 22.2676 28.0468 22.4852 27.7793 22.4852Z" fill="#6562CE"/>
</svg>
